<svg xmlns="http://www.w3.org/2000/svg" viewBox="0 0 552 381" width="100%" height="auto" preserveAspectRatio="xMidYMid meet" fill="currentColor">
  <g transform="translate(0,381) scale(0.1,-0.1)">
    <path d="M753 2300 c-53 -21 -53 -25 -53 -619 l0 -549 26 -31 26 -31 518 0 518 0 26 31 26 31 0 549 c0 597 0 592 -55 617 -31 14 -997 16 -1032 2z m705 -348 c225 -225 211 -207 182 -237 l-24 -25 27 -28 27 -28 -195 -194 -195 -195 -195 195 -195 194 25 26 24 25 -26 29 -25 29 194 194 c106 106 194 193 196 193 1 0 82 -80 180 -178z"/>
    <path d="M1098 1922 c-149 -149 -175 -179 -165 -192 7 -8 88 -89 180 -180 l167 -164 175 174 c96 96 175 178 175 182 0 7 -267 277 -331 335 l-25 22 -176 -177z m322 -47 l135 -135 -138 -137 -137 -138 -135 135 c-74 74 -135 138 -135 143 0 10 257 267 267 267 5 0 69 -61 143 -135z"/>
    <path d="M1210 1805 l-64 -65 64 -65 64 -65 68 67 68 67 -62 63 c-34 35 -65 63 -68 63 -3 0 -35 -29 -70 -65z m92 -87 l-22 -22 -25 24 -25 24 22 23 22 24 25 -26 25 -25 -22 -22z"/>
    <!-- Tu peux garder ou supprimer les autres <path> selon ce que tu veux afficher -->
  </g>
</svg>
