<?xml version="1.0" standalone="no"?>
<!DOCTYPE svg PUBLIC "-//W3C//DTD SVG 20010904//EN"
 "http://www.w3.org/TR/2001/REC-SVG-20010904/DTD/svg10.dtd">
<svg version="1.0" xmlns="http://www.w3.org/2000/svg"
 width="91.000000pt" height="61.000000pt" viewBox="0 0 552.000000 381.000000"
 preserveAspectRatio="xMidYMid meet">

<g transform="translate(0.000000,381.000000) scale(0.100000,-0.100000)"
fill="#000000" stroke="none">
<path d="M753 2300 c-53 -21 -53 -25 -53 -619 l0 -549 26 -31 26 -31 518 0
518 0 26 31 26 31 0 549 c0 597 0 592 -55 617 -31 14 -997 16 -1032 2z m705
-348 c225 -225 211 -207 182 -237 l-24 -25 27 -28 27 -28 -195 -194 -195 -195
-195 195 -195 194 25 26 24 25 -26 29 -25 29 194 194 c106 106 194 193 196
193 1 0 82 -80 180 -178z"/>
<path d="M1098 1922 c-149 -149 -175 -179 -165 -192 7 -8 88 -89 180 -180
l167 -164 175 174 c96 96 175 178 175 182 0 7 -267 277 -331 335 l-25 22 -176
-177z m322 -47 l135 -135 -138 -137 -137 -138 -135 135 c-74 74 -135 138 -135
143 0 10 257 267 267 267 5 0 69 -61 143 -135z"/>
<path d="M1210 1805 l-64 -65 64 -65 64 -65 68 67 68 67 -62 63 c-34 35 -65
63 -68 63 -3 0 -35 -29 -70 -65z m92 -87 l-22 -22 -25 24 -25 24 22 23 22 24
25 -26 25 -25 -22 -22z"/>
<path d="M2035 2037 c-3 -7 -4 -134 -3 -282 l3 -270 30 0 30 0 5 115 c7 149
24 180 103 180 60 0 71 -24 77 -169 l5 -126 33 -3 32 -3 0 123 c0 150 -10 192
-53 219 -40 25 -136 22 -165 -4 -10 -9 -22 -17 -25 -17 -4 0 -7 56 -7 125 l0
125 -30 0 c-17 0 -33 -6 -35 -13z"/>
<path d="M3557 2043 c-4 -3 -7 -60 -7 -125 l0 -118 -40 21 c-57 30 -144 23
-193 -14 -102 -78 -88 -261 26 -316 57 -27 104 -27 160 3 43 23 45 24 50 5 4
-14 14 -19 36 -19 l31 0 0 285 0 285 -28 0 c-16 0 -32 -3 -35 -7z m-59 -279
c80 -56 65 -195 -25 -222 -92 -28 -157 28 -150 127 3 46 9 59 36 83 36 33 102
38 139 12z"/>
<path d="M2504 1826 c-41 -18 -50 -34 -31 -53 14 -14 20 -14 56 1 23 9 54 16
70 16 38 0 83 -36 79 -64 -3 -18 -11 -22 -73 -27 -38 -3 -81 -11 -95 -16 -57
-24 -88 -95 -65 -150 26 -61 133 -83 198 -39 34 23 35 24 40 4 4 -15 12 -19
34 -16 15 2 27 6 26 11 -2 4 -3 68 -3 142 0 134 0 135 -29 167 -27 30 -34 33
-102 35 -48 2 -85 -2 -105 -11z m176 -205 c0 -37 -41 -87 -76 -94 -36 -6 -82
10 -95 34 -26 49 26 88 119 89 51 0 52 -1 52 -29z"/>
<path d="M2852 1832 c-9 -7 -12 -49 -10 -178 l3 -169 30 0 30 0 5 115 c7 149
24 180 103 180 60 0 71 -24 77 -169 l5 -126 30 0 30 0 3 127 c3 148 -8 187
-59 213 -40 21 -130 16 -157 -8 -24 -22 -29 -21 -35 3 -5 20 -32 26 -55 12z"/>
<path d="M3732 1832 c-9 -7 -12 -49 -10 -178 l3 -169 30 0 30 0 6 115 c3 63 9
123 13 132 10 22 70 50 99 46 18 -3 23 2 25 31 l3 34 -46 -5 c-25 -3 -54 -13
-64 -22 -23 -21 -28 -20 -34 4 -5 20 -32 26 -55 12z"/>
<path d="M4060 1817 c-63 -33 -93 -92 -88 -174 6 -98 65 -160 165 -171 50 -5
121 18 149 49 17 19 17 20 -3 41 l-21 21 -27 -21 c-56 -44 -134 -37 -175 16
-39 48 -32 51 123 54 l142 3 -3 45 c-5 60 -39 119 -82 142 -49 26 -126 24
-180 -5z m161 -57 c20 -19 29 -38 27 -52 -3 -21 -9 -23 -83 -26 -127 -5 -147
7 -104 62 43 55 115 62 160 16z"/>
<path d="M4450 1827 c-14 -7 -33 -29 -43 -50 -35 -71 10 -129 119 -152 63 -13
79 -60 28 -84 -34 -15 -41 -14 -92 11 l-45 21 -19 -22 c-22 -28 -17 -38 36
-62 104 -47 226 4 226 96 0 48 -27 74 -104 99 -38 12 -74 30 -80 39 -27 43 50
75 101 42 24 -16 26 -16 47 5 l21 21 -28 25 c-23 19 -39 24 -85 24 -31 0 -68
-6 -82 -13z"/>
<path d="M2032 1345 c0 -16 2 -22 5 -12 2 9 2 23 0 30 -3 6 -5 -1 -5 -18z"/>
<path d="M2057 1355 c-4 -8 -2 -17 3 -20 6 -4 10 3 10 14 0 25 -6 27 -13 6z"/>
<path d="M2261 1365 c0 -5 6 -19 14 -29 8 -11 15 -15 15 -10 0 6 -7 19 -15 30
-8 10 -14 15 -14 9z"/>
<path d="M2297 1363 c-3 -5 -1 -17 4 -28 7 -17 8 -17 8 8 1 27 -4 34 -12 20z"/>
<path d="M2390 1349 c-7 -11 -10 -23 -7 -25 2 -2 9 7 15 21 14 30 7 33 -8 4z"/>
<path d="M2527 1350 c-3 -11 -1 -23 4 -26 5 -3 9 6 9 20 0 31 -6 34 -13 6z"/>
<path d="M2712 1354 c-7 -8 -8 -14 -3 -14 10 0 25 19 20 25 -2 1 -10 -3 -17
-11z"/>
<path d="M2800 1345 c0 -17 5 -25 18 -25 13 0 14 2 3 9 -11 7 -11 9 0 14 11 4
11 6 1 6 -7 1 -10 6 -7 11 3 6 1 10 -4 10 -6 0 -11 -11 -11 -25z"/>
<path d="M2910 1363 c0 -7 5 -15 11 -19 8 -4 7 -9 -2 -15 -10 -6 -10 -9 -2 -9
19 0 22 14 7 35 -8 10 -14 14 -14 8z"/>
<path d="M3010 1363 c0 -7 5 -15 11 -19 8 -4 7 -9 -2 -15 -10 -6 -10 -9 -2 -9
19 0 22 14 7 35 -8 10 -14 14 -14 8z"/>
<path d="M3110 1359 c0 -5 5 -7 10 -4 6 3 10 8 10 11 0 2 -4 4 -10 4 -5 0 -10
-5 -10 -11z"/>
<path d="M3148 1348 c4 -18 2 -20 -18 -15 -16 4 -20 3 -12 -5 6 -6 18 -8 26
-5 17 7 21 32 7 41 -5 4 -7 -4 -3 -16z"/>
<path d="M3234 1345 c1 -28 30 -25 34 3 2 19 1 19 -4 2 -7 -25 -21 -26 -27 -2
-3 13 -4 12 -3 -3z"/>
<path d="M3342 1345 c0 -16 2 -24 5 -17 2 6 8 10 13 7 4 -3 10 2 14 10 3 8 0
17 -6 21 -7 4 -8 3 -4 -4 4 -7 3 -12 -3 -12 -5 0 -12 6 -14 13 -3 6 -5 -1 -5
-18z"/>
<path d="M3560 1345 c0 -17 5 -25 18 -24 10 0 12 3 5 6 -7 2 -13 11 -13 18 0
7 6 16 13 18 7 3 5 6 -5 6 -13 1 -18 -7 -18 -24z"/>
<path d="M3750 1363 c0 -7 5 -15 11 -19 8 -4 7 -9 -2 -15 -10 -6 -10 -9 -2 -9
19 0 22 14 7 35 -8 10 -14 14 -14 8z"/>
<path d="M3850 1359 c0 -5 5 -7 10 -4 6 3 10 8 10 11 0 2 -4 4 -10 4 -5 0 -10
-5 -10 -11z"/>
<path d="M3886 1357 c3 -10 9 -15 12 -12 3 3 0 11 -7 18 -10 9 -11 8 -5 -6z"/>
<path d="M3972 1350 c0 -14 2 -19 5 -12 2 6 2 18 0 25 -3 6 -5 1 -5 -13z"/>
<path d="M4080 1350 c0 -11 2 -20 4 -20 2 0 6 9 9 20 3 11 1 20 -4 20 -5 0 -9
-9 -9 -20z"/>
<path d="M4190 1351 c-13 -26 -12 -41 1 -17 9 14 13 16 20 5 4 -7 11 -10 15
-7 3 4 -1 14 -9 23 -15 14 -17 14 -27 -4z"/>
<path d="M4310 1349 c-7 -11 -9 -23 -6 -27 3 -3 6 0 6 6 0 6 7 9 15 6 8 -4 15
-1 15 6 0 6 -5 8 -12 4 -8 -5 -9 -2 -5 9 9 24 0 21 -13 -4z"/>
<path d="M4432 1354 c-7 -8 -8 -14 -3 -14 10 0 25 19 20 25 -2 1 -10 -3 -17
-11z"/>
<path d="M4520 1345 c0 -17 5 -25 18 -25 13 0 14 2 3 9 -7 5 -9 10 -3 12 6 2
4 9 -4 17 -12 11 -14 9 -14 -13z"/>
<path d="M2160 1330 c-9 -6 -10 -10 -3 -10 6 0 15 5 18 10 8 12 4 12 -15 0z"/>
<path d="M3457 1329 c7 -7 15 -10 18 -7 3 3 -2 9 -12 12 -14 6 -15 5 -6 -5z"/>
<path d="M3857 1329 c7 -7 15 -10 18 -7 3 3 -2 9 -12 12 -14 6 -15 5 -6 -5z"/>
</g>
</svg>
